<mxfile host="app.diagrams.net" agent="Mozilla/5.0 (Windows NT 10.0; Win64; x64) AppleWebKit/537.36 (KHTML, like Gecko) Chrome/133.0.0.0 Safari/537.36" version="26.0.15">
  <diagram name="Strona-1" id="2TrktFUuN457d-i8-NzB">
    <mxGraphModel dx="989" dy="532" grid="1" gridSize="10" guides="1" tooltips="1" connect="1" arrows="1" fold="1" page="1" pageScale="1" pageWidth="827" pageHeight="1169" math="0" shadow="0">
      <root>
        <mxCell id="0" />
        <mxCell id="1" parent="0" />
        <mxCell id="_laMCm_mhpA3sDN4mzVW-9" value="Użytkownik" style="html=1;whiteSpace=wrap;" vertex="1" parent="1">
          <mxGeometry x="40" y="40" width="110" height="170" as="geometry" />
        </mxCell>
        <mxCell id="_laMCm_mhpA3sDN4mzVW-10" value="Aplikacja" style="html=1;whiteSpace=wrap;" vertex="1" parent="1">
          <mxGeometry x="380" y="40" width="110" height="170" as="geometry" />
        </mxCell>
        <mxCell id="_laMCm_mhpA3sDN4mzVW-11" value="Serwer&lt;div&gt;&lt;br&gt;&lt;/div&gt;" style="html=1;whiteSpace=wrap;" vertex="1" parent="1">
          <mxGeometry x="690" y="40" width="110" height="170" as="geometry" />
        </mxCell>
        <mxCell id="_laMCm_mhpA3sDN4mzVW-12" value="" style="endArrow=classic;html=1;rounded=0;exitX=0.991;exitY=0.206;exitDx=0;exitDy=0;exitPerimeter=0;entryX=-0.009;entryY=0.212;entryDx=0;entryDy=0;entryPerimeter=0;" edge="1" parent="1">
          <mxGeometry relative="1" as="geometry">
            <mxPoint x="150" y="49.999999999999986" as="sourcePoint" />
            <mxPoint x="380" y="51.02000000000008" as="targetPoint" />
            <Array as="points">
              <mxPoint x="320.99" y="50.980000000000004" />
            </Array>
          </mxGeometry>
        </mxCell>
        <mxCell id="_laMCm_mhpA3sDN4mzVW-13" value="Dodaj nową listę" style="edgeLabel;resizable=0;html=1;;align=center;verticalAlign=middle;" connectable="0" vertex="1" parent="_laMCm_mhpA3sDN4mzVW-12">
          <mxGeometry relative="1" as="geometry" />
        </mxCell>
        <mxCell id="_laMCm_mhpA3sDN4mzVW-15" value="" style="endArrow=classic;html=1;rounded=0;exitX=0.991;exitY=0.206;exitDx=0;exitDy=0;exitPerimeter=0;entryX=-0.009;entryY=0.212;entryDx=0;entryDy=0;entryPerimeter=0;" edge="1" parent="1">
          <mxGeometry relative="1" as="geometry">
            <mxPoint x="150" y="110" as="sourcePoint" />
            <mxPoint x="380" y="111" as="targetPoint" />
            <Array as="points">
              <mxPoint x="321" y="111" />
            </Array>
          </mxGeometry>
        </mxCell>
        <mxCell id="_laMCm_mhpA3sDN4mzVW-16" value="Dodaj nazwę i elementy" style="edgeLabel;resizable=0;html=1;;align=center;verticalAlign=middle;" connectable="0" vertex="1" parent="_laMCm_mhpA3sDN4mzVW-15">
          <mxGeometry relative="1" as="geometry" />
        </mxCell>
        <mxCell id="_laMCm_mhpA3sDN4mzVW-17" value="" style="endArrow=classic;html=1;rounded=0;exitX=0;exitY=0.25;exitDx=0;exitDy=0;entryX=1;entryY=0.25;entryDx=0;entryDy=0;" edge="1" parent="1" source="_laMCm_mhpA3sDN4mzVW-10" target="_laMCm_mhpA3sDN4mzVW-9">
          <mxGeometry relative="1" as="geometry">
            <mxPoint x="330" y="180" as="sourcePoint" />
            <mxPoint x="430" y="180" as="targetPoint" />
          </mxGeometry>
        </mxCell>
        <mxCell id="_laMCm_mhpA3sDN4mzVW-18" value="Wyświetl pola dodawania" style="edgeLabel;resizable=0;html=1;;align=center;verticalAlign=middle;" connectable="0" vertex="1" parent="_laMCm_mhpA3sDN4mzVW-17">
          <mxGeometry relative="1" as="geometry" />
        </mxCell>
        <mxCell id="_laMCm_mhpA3sDN4mzVW-20" value="" style="endArrow=classic;html=1;rounded=0;exitX=0.991;exitY=0.206;exitDx=0;exitDy=0;exitPerimeter=0;entryX=-0.009;entryY=0.212;entryDx=0;entryDy=0;entryPerimeter=0;" edge="1" parent="1">
          <mxGeometry relative="1" as="geometry">
            <mxPoint x="150" y="140" as="sourcePoint" />
            <mxPoint x="380" y="141" as="targetPoint" />
            <Array as="points">
              <mxPoint x="321" y="141" />
            </Array>
          </mxGeometry>
        </mxCell>
        <mxCell id="_laMCm_mhpA3sDN4mzVW-21" value="Wyślij listę" style="edgeLabel;resizable=0;html=1;;align=center;verticalAlign=middle;" connectable="0" vertex="1" parent="_laMCm_mhpA3sDN4mzVW-20">
          <mxGeometry relative="1" as="geometry" />
        </mxCell>
        <mxCell id="_laMCm_mhpA3sDN4mzVW-22" value="" style="endArrow=classic;html=1;rounded=0;exitX=0.991;exitY=0.206;exitDx=0;exitDy=0;exitPerimeter=0;" edge="1" parent="1">
          <mxGeometry relative="1" as="geometry">
            <mxPoint x="490" y="140" as="sourcePoint" />
            <mxPoint x="690" y="141" as="targetPoint" />
            <Array as="points">
              <mxPoint x="661" y="141" />
            </Array>
          </mxGeometry>
        </mxCell>
        <mxCell id="_laMCm_mhpA3sDN4mzVW-23" value="Zapisz listę" style="edgeLabel;resizable=0;html=1;;align=center;verticalAlign=middle;" connectable="0" vertex="1" parent="_laMCm_mhpA3sDN4mzVW-22">
          <mxGeometry relative="1" as="geometry" />
        </mxCell>
        <mxCell id="_laMCm_mhpA3sDN4mzVW-24" value="" style="endArrow=classic;html=1;rounded=0;exitX=0;exitY=0.25;exitDx=0;exitDy=0;" edge="1" parent="1">
          <mxGeometry relative="1" as="geometry">
            <mxPoint x="690" y="160" as="sourcePoint" />
            <mxPoint x="490" y="160" as="targetPoint" />
          </mxGeometry>
        </mxCell>
        <mxCell id="_laMCm_mhpA3sDN4mzVW-25" value="Podaj dane listy" style="edgeLabel;resizable=0;html=1;;align=center;verticalAlign=middle;" connectable="0" vertex="1" parent="_laMCm_mhpA3sDN4mzVW-24">
          <mxGeometry relative="1" as="geometry" />
        </mxCell>
        <mxCell id="_laMCm_mhpA3sDN4mzVW-26" value="" style="endArrow=classic;html=1;rounded=0;exitX=0;exitY=0.25;exitDx=0;exitDy=0;entryX=1;entryY=0.25;entryDx=0;entryDy=0;" edge="1" parent="1">
          <mxGeometry relative="1" as="geometry">
            <mxPoint x="380" y="160" as="sourcePoint" />
            <mxPoint x="150" y="160" as="targetPoint" />
          </mxGeometry>
        </mxCell>
        <mxCell id="_laMCm_mhpA3sDN4mzVW-27" value="Wyświetl dane listy" style="edgeLabel;resizable=0;html=1;;align=center;verticalAlign=middle;" connectable="0" vertex="1" parent="_laMCm_mhpA3sDN4mzVW-26">
          <mxGeometry relative="1" as="geometry" />
        </mxCell>
      </root>
    </mxGraphModel>
  </diagram>
</mxfile>
